<svg id="visual" viewBox="0 0 900 600" width="900" height="600" xmlns="http://www.w3.org/2000/svg" xmlns:xlink="http://www.w3.org/1999/xlink" version="1.1"><path d="M0 244L21.5 241.2C43 238.3 86 232.7 128.8 227.5C171.7 222.3 214.3 217.7 257.2 217.8C300 218 343 223 385.8 224.7C428.7 226.3 471.3 224.7 514.2 212.8C557 201 600 179 642.8 179.3C685.7 179.7 728.3 202.3 771.2 211C814 219.7 857 214.3 878.5 211.7L900 209L900 0L878.5 0C857 0 814 0 771.2 0C728.3 0 685.7 0 642.8 0C600 0 557 0 514.2 0C471.3 0 428.7 0 385.8 0C343 0 300 0 257.2 0C214.3 0 171.7 0 128.8 0C86 0 43 0 21.5 0L0 0Z" fill="#dd3f31"></path><path d="M0 177L21.5 168.8C43 160.7 86 144.3 128.8 140.8C171.7 137.3 214.3 146.7 257.2 147.8C300 149 343 142 385.8 149.5C428.7 157 471.3 179 514.2 187.7C557 196.3 600 191.7 642.8 178C685.7 164.3 728.3 141.7 771.2 138.8C814 136 857 153 878.5 161.5L900 170L900 0L878.5 0C857 0 814 0 771.2 0C728.3 0 685.7 0 642.8 0C600 0 557 0 514.2 0C471.3 0 428.7 0 385.8 0C343 0 300 0 257.2 0C214.3 0 171.7 0 128.8 0C86 0 43 0 21.5 0L0 0Z" fill="#e95667"></path><path d="M0 102L21.5 100.2C43 98.3 86 94.7 128.8 94C171.7 93.3 214.3 95.7 257.2 101.3C300 107 343 116 385.8 117.7C428.7 119.3 471.3 113.7 514.2 113.7C557 113.7 600 119.3 642.8 119C685.7 118.7 728.3 112.3 771.2 109.7C814 107 857 108 878.5 108.5L900 109L900 0L878.5 0C857 0 814 0 771.2 0C728.3 0 685.7 0 642.8 0C600 0 557 0 514.2 0C471.3 0 428.7 0 385.8 0C343 0 300 0 257.2 0C214.3 0 171.7 0 128.8 0C86 0 43 0 21.5 0L0 0Z" fill="#fa7268"></path><path d="M0 117L21.5 113.8C43 110.7 86 104.3 128.8 101.3C171.7 98.3 214.3 98.7 257.2 95.3C300 92 343 85 385.8 80.3C428.7 75.7 471.3 73.3 514.2 72.7C557 72 600 73 642.8 77.7C685.7 82.3 728.3 90.7 771.2 97.5C814 104.3 857 109.7 878.5 112.3L900 115L900 0L878.5 0C857 0 814 0 771.2 0C728.3 0 685.7 0 642.8 0C600 0 557 0 514.2 0C471.3 0 428.7 0 385.8 0C343 0 300 0 257.2 0C214.3 0 171.7 0 128.8 0C86 0 43 0 21.5 0L0 0Z" fill="#e95667"></path><path d="M0 46L21.5 49.5C43 53 86 60 128.8 59.5C171.7 59 214.3 51 257.2 46.8C300 42.7 343 42.3 385.8 45.3C428.7 48.3 471.3 54.7 514.2 52.7C557 50.7 600 40.3 642.8 41.2C685.7 42 728.3 54 771.2 54.8C814 55.7 857 45.3 878.5 40.2L900 35L900 0L878.5 0C857 0 814 0 771.2 0C728.3 0 685.7 0 642.8 0C600 0 557 0 514.2 0C471.3 0 428.7 0 385.8 0C343 0 300 0 257.2 0C214.3 0 171.7 0 128.8 0C86 0 43 0 21.5 0L0 0Z" fill="#c62368"></path></svg>