<svg id="visual" viewBox="0 0 900 600" width="900" height="600" xmlns="http://www.w3.org/2000/svg" xmlns:xlink="http://www.w3.org/1999/xlink" version="1.1"><path d="M0 445L21.5 431.3C43 417.7 86 390.3 128.8 390.5C171.7 390.7 214.3 418.3 257.2 423.5C300 428.7 343 411.3 385.8 409C428.7 406.7 471.3 419.3 514.2 418C557 416.7 600 401.3 642.8 402.3C685.7 403.3 728.3 420.7 771.2 430.7C814 440.7 857 443.3 878.5 444.7L900 446L900 601L878.5 601C857 601 814 601 771.2 601C728.3 601 685.7 601 642.8 601C600 601 557 601 514.2 601C471.3 601 428.7 601 385.8 601C343 601 300 601 257.2 601C214.3 601 171.7 601 128.8 601C86 601 43 601 21.5 601L0 601Z" fill="#fa7268"></path><path d="M0 430L21.5 438.2C43 446.3 86 462.7 128.8 463.3C171.7 464 214.3 449 257.2 446.2C300 443.3 343 452.7 385.8 459.2C428.7 465.7 471.3 469.3 514.2 468.7C557 468 600 463 642.8 460.8C685.7 458.7 728.3 459.3 771.2 449.8C814 440.3 857 420.7 878.5 410.8L900 401L900 601L878.5 601C857 601 814 601 771.2 601C728.3 601 685.7 601 642.8 601C600 601 557 601 514.2 601C471.3 601 428.7 601 385.8 601C343 601 300 601 257.2 601C214.3 601 171.7 601 128.8 601C86 601 43 601 21.5 601L0 601Z" fill="#ef5f67"></path><path d="M0 465L21.5 461.5C43 458 86 451 128.8 446.7C171.7 442.3 214.3 440.7 257.2 449.5C300 458.3 343 477.7 385.8 477.7C428.7 477.7 471.3 458.3 514.2 452.3C557 446.3 600 453.7 642.8 459.3C685.7 465 728.3 469 771.2 471.3C814 473.7 857 474.3 878.5 474.7L900 475L900 601L878.5 601C857 601 814 601 771.2 601C728.3 601 685.7 601 642.8 601C600 601 557 601 514.2 601C471.3 601 428.7 601 385.8 601C343 601 300 601 257.2 601C214.3 601 171.7 601 128.8 601C86 601 43 601 21.5 601L0 601Z" fill="#e34c67"></path><path d="M0 525L21.5 521.2C43 517.3 86 509.7 128.8 510.5C171.7 511.3 214.3 520.7 257.2 519C300 517.3 343 504.7 385.8 497C428.7 489.3 471.3 486.7 514.2 485.7C557 484.7 600 485.3 642.8 493.3C685.7 501.3 728.3 516.7 771.2 518.2C814 519.7 857 507.3 878.5 501.2L900 495L900 601L878.5 601C857 601 814 601 771.2 601C728.3 601 685.7 601 642.8 601C600 601 557 601 514.2 601C471.3 601 428.7 601 385.8 601C343 601 300 601 257.2 601C214.3 601 171.7 601 128.8 601C86 601 43 601 21.5 601L0 601Z" fill="#d53867"></path><path d="M0 568L21.5 562C43 556 86 544 128.8 543.2C171.7 542.3 214.3 552.7 257.2 557.3C300 562 343 561 385.8 559.3C428.7 557.7 471.3 555.3 514.2 553.5C557 551.7 600 550.3 642.8 545.7C685.7 541 728.3 533 771.2 529.7C814 526.3 857 527.7 878.5 528.3L900 529L900 601L878.5 601C857 601 814 601 771.2 601C728.3 601 685.7 601 642.8 601C600 601 557 601 514.2 601C471.3 601 428.7 601 385.8 601C343 601 300 601 257.2 601C214.3 601 171.7 601 128.8 601C86 601 43 601 21.5 601L0 601Z" fill="#ff0066"></path></svg>